<svg xmlns="http://www.w3.org/2000/svg" fill="none" viewBox="0 0 200 200" height="200" width="200">
  <g id="productive-finished-complete">
    <path id="Vector" fill="#000000" d="M154.202 110.993c0.077 9.89 -1.7 19.703 -5.022 28.976 -1.005 2.859 -2.241 5.64 -3.555 8.345 -0.618 1.313 -1.313 2.55 -2.009 3.786 -0.231 0.386 -0.463 0.773 -0.695 1.159 -1.236 2.163 -2.627 4.172 -4.018 6.181 -1.314 1.855 -2.704 3.709 -4.25 5.332 -0.154 0.154 -0.309 0.309 -0.463 0.386 -0.85 0.773 -1.855 0.077 -1.778 -0.772 0 -0.232 0.078 -0.387 0.232 -0.619l0.077 -0.154c0.31 -0.387 0.541 -0.773 0.85 -1.159 1.314 -1.7 2.628 -3.323 3.864 -5.1 1.545 -2.241 2.936 -4.481 4.25 -6.877 0.927 -1.622 1.7 -3.245 2.472 -4.945 0.309 -0.695 0.618 -1.391 0.927 -2.086 2.705 -6.336 4.637 -13.059 5.718 -19.935 0.696 -4.714 1.005 -9.505 0.85 -14.218 -0.154 -4.791 -0.772 -9.5039 -1.7 -14.14 -0.154 -0.6182 0.078 -1.3136 0.773 -1.4681 0.541 -0.1545 1.314 0.1545 1.468 0.7727 1.391 5.3315 1.932 10.9724 2.009 16.5354" stroke-width="1"></path>
    <path id="Vector_2" fill="#000000" d="M152.655 95.7712c-0.618 -1.9317 -1.7 -3.7861 -2.859 -5.486 -1.159 -1.7772 -2.472 -3.3999 -3.94 -5.0225 -0.696 -0.7727 -1.391 -1.4681 -2.087 -2.1635 -0.695 -0.6954 -1.545 -1.2363 -2.086 -2.0863 -0.309 -0.4636 -0.618 -1.3908 0.155 -1.5453 0.772 -0.1546 1.545 0.5408 2.086 1.0045 2.009 1.7771 4.018 3.6316 6.104 5.4087 1.082 0.9273 2.55 -0.6954 1.545 -1.6226 -2.009 -1.8544 -4.095 -3.7089 -6.104 -5.4861 -0.85 -0.7726 -1.854 -1.3908 -3.013 -1.4681 -1.082 -0.0772 -2.164 0.3091 -2.782 1.2363 -0.695 1.0045 -0.618 2.2408 -0.077 3.2453 0.541 1.0818 1.468 1.7772 2.318 2.6271 1.7 1.6227 3.322 3.3999 4.791 5.2543 1.699 2.1635 2.936 4.6361 4.558 6.8769 0.387 0.7727 1.7 0.1545 1.391 -0.7727" stroke-width="1"></path>
    <path id="Vector_3" fill="#000000" d="M153.042 79.8538c-0.696 -0.6181 -1.391 -1.2363 -2.164 -1.8544 -1.545 -1.159 -3.168 -2.2408 -4.868 -3.168 -0.927 -0.4636 -1.931 -1.0045 -3.013 -0.9272 -0.927 0.0772 -1.777 0.5408 -2.241 1.3135 -1.082 1.6227 -0.232 3.7089 1.7 4.1725 0.85 0.1545 1.236 -1.0045 0.464 -1.3908 -0.927 -0.5409 -0.85 -2.0863 0.386 -2.009 0.695 0.0773 1.468 0.5409 2.086 0.85 0.618 0.309 1.237 0.6954 1.855 1.0817 1.159 0.7727 2.318 1.5454 3.4 2.4726 0.54 0.4636 1.081 0.9272 1.622 1.4681s1.005 1.2363 1.855 1.2363c0.463 0 0.772 -0.4636 0.772 -0.85 0 -0.9272 -1.236 -1.8544 -1.854 -2.3953" stroke-width="1"></path>
    <path id="Vector_4" fill="#000000" d="M156.75 78.5402c-2.086 -2.5499 -4.636 -4.9452 -7.572 -6.6451 -1.391 -0.7727 -3.091 -1.2363 -4.636 -0.5409 -1.236 0.6182 -2.164 2.0863 -1.545 3.4771 0.309 0.6954 1.622 0.6182 1.468 -0.3091 -0.155 -0.9272 0.695 -1.6226 1.545 -1.6999 1.236 -0.0772 2.395 0.7727 3.4 1.4681 2.086 1.5454 4.018 3.2453 5.64 5.2543 0.31 0.3863 0.928 0.6181 1.391 0.3091 0.464 -0.2318 0.696 -0.9273 0.309 -1.3136" stroke-width="1"></path>
    <path id="Vector_5" fill="#000000" d="M164.478 81.8628c-0.464 -1.0818 -1.005 -2.1635 -1.623 -3.168 -1.159 -2.1635 -2.472 -4.1725 -3.863 -6.1042 -0.696 -0.9273 -1.468 -1.9317 -2.164 -2.7817 -0.695 -0.85 -1.468 -1.8544 -2.472 -2.3181 -1.005 -0.3863 -2.241 -0.1545 -2.782 0.85 -0.464 0.85 -0.309 1.9317 0.077 2.7817 0.541 1.3135 1.314 2.5498 1.932 3.7861 0.773 1.3909 1.468 2.8589 2.395 4.0952 0.541 0.6955 1.777 0.2319 1.468 -0.6954 -0.927 -2.7044 -2.627 -5.177 -3.786 -7.8041 -0.154 -0.3863 -0.309 -0.6954 -0.309 -1.159l0 -0.1545c0.232 0 0.464 0.2318 0.618 0.3863 0.928 0.7727 1.7 1.8544 2.396 2.8589 1.545 2.009 3.013 4.0953 4.249 6.336 0.619 1.0818 1.237 2.2408 1.778 3.3999 0.54 1.0817 0.927 2.5498 1.931 3.3225 0.387 0.3091 1.005 0.1545 1.082 -0.3863 0.155 -1.0818 -0.464 -2.2408 -0.927 -3.2453" stroke-width="1"></path>
    <path id="Vector_6" fill="#000000" d="M166.256 145.3c-1.082 3.477 -2.318 6.877 -3.787 10.199 -0.309 0.696 -0.54 1.314 -0.849 1.932 -4.327 9.659 -9.968 18.776 -16.768 26.89 -0.541 0.618 -1.236 0.463 -1.622 0.077 -0.232 -0.155 -0.387 -0.464 -0.387 -0.696 -0.077 -0.309 0 -0.695 0.309 -1.004 0.155 -0.155 0.232 -0.309 0.387 -0.464 0.154 -0.231 0.386 -0.386 0.541 -0.618 4.945 -6.027 9.195 -12.517 12.749 -19.394 0.154 -0.309 0.309 -0.696 0.541 -1.005 0.463 -0.85 0.85 -1.7 1.313 -2.627 5.795 -12.286 9.427 -25.498 10.509 -39.098 1.236 -15.453 -0.696 -31.0616 -5.718 -45.6653 -0.927 0.9272 -1.314 2.318 -0.85 3.6316 0.309 1.0045 -1.082 1.3136 -1.468 0.4636 -1.082 -2.2408 0.077 -5.177 2.318 -6.2588 0.541 -0.2318 1.082 -0.0772 1.314 0.4637 3.09 8.5768 5.177 17.4626 6.181 26.503 1.545 15.7632 0 31.6802 -4.713 46.6702" stroke-width="1"></path>
    <path id="Vector_7" fill="#000000" d="M145.393 182.775c-0.154 0.541 -0.386 1.082 -0.541 1.623 -0.309 0.773 -0.541 1.468 -0.85 2.164 -0.231 0.463 -0.386 0.927 -0.618 1.39 -0.386 0.773 -0.85 1.623 -1.236 2.396 -0.232 0.386 -0.464 0.772 -0.696 1.236 -0.231 0.386 -0.463 0.773 -0.772 1.159 0 0.077 -0.077 0.077 -0.155 0.155 -0.386 0.386 -1.004 0.463 -1.468 0.154 -0.386 -0.232 -0.541 -0.618 -0.463 -1.082 0 -0.154 0.077 -0.231 0.077 -0.386 0.154 -0.464 0.463 -0.85 0.695 -1.236 0.232 -0.387 0.464 -0.773 0.696 -1.159 0.463 -0.773 0.85 -1.546 1.236 -2.318 0.541 -1.082 1.082 -2.087 1.545 -3.168 0.232 -0.464 0.464 -0.928 0.618 -1.391 0 -0.078 0.078 -0.155 0.078 -0.232 0.077 -0.232 0.232 -0.386 0.463 -0.464 0.618 -0.231 1.623 0.309 1.391 1.159" stroke-width="1"></path>
    <path id="Vector_8" fill="#000000" d="M120.049 133.864c0 -0.077 -0.078 -0.231 -0.078 -0.309l-0.154 -0.154c-0.077 -0.078 -0.155 -0.078 -0.155 -0.155 -0.154 -0.077 -0.463 -0.077 -0.618 -0.077h-0.077c-0.077 0 -0.155 0.077 -0.155 0.077 -0.077 0 -0.077 0 -0.154 0.077l-0.387 0.31 -0.077 0.077c-0.077 0.077 -0.154 0.077 -0.232 0.154 -0.077 0.078 -0.154 0.155 -0.154 0.232s-0.077 0.077 -0.077 0.155c-0.078 0.077 -0.078 0.154 -0.078 0.309l0 0.154c0 0.078 0.078 0.155 0.078 0.232 0.077 0.077 0.154 0.155 0.309 0.232 0.154 0.077 0.386 0.077 0.541 0.077l0.154 0c0.077 0 0.155 0 0.232 -0.077 0 0 0.077 0 0.077 -0.077 0.077 0 0.155 -0.078 0.232 -0.078s0.155 -0.077 0.232 -0.077 0.154 -0.077 0.232 -0.077c0.077 -0.077 0.154 -0.077 0.154 -0.155 0.077 -0.077 0.077 -0.077 0.155 -0.154 0.077 -0.077 0.077 -0.155 0.154 -0.155 0.077 -0.077 0.077 -0.232 0.077 -0.309 -0.154 -0.077 -0.154 -0.154 -0.231 -0.232" stroke-width="1"></path>
    <path id="Vector_9" fill="#000000" d="M111.858 145.068c-0.232 0.773 -0.695 1.468 -1.159 2.086 -0.155 -0.463 -0.232 -0.927 -0.309 -1.39 -0.077 -0.387 -0.155 -0.773 -0.155 -1.159l0.078 -0.078c0.386 -0.85 1.854 -0.386 1.545 0.541" stroke-width="1"></path>
    <path id="Vector_10" fill="#000000" d="M112.167 140.2c0.154 0.464 -0.077 1.005 -0.541 1.159 -0.464 0.232 -0.927 0.078 -1.236 -0.309 0.077 -0.386 0.154 -0.772 0.309 -1.081 0.154 -0.541 0.386 -1.082 0.618 -1.623 0 0.077 0.077 0.154 0.077 0.232 0.077 0.309 0.232 0.618 0.309 0.85 0 0.077 0.077 0.077 0.077 0.154v0.078c0.232 0.154 0.31 0.386 0.387 0.54" stroke-width="1"></path>
    <path id="Vector_11" fill="#000000" d="M115.258 135.719c-0.078 0.155 -0.078 0.309 -0.155 0.464 -0.309 0.154 -0.695 0.077 -1.004 -0.078 -0.387 -0.231 -0.619 -0.54 -0.619 -0.927 0.155 -0.154 0.31 -0.232 0.464 -0.309 0.618 -0.309 1.468 0.077 1.314 0.85" stroke-width="1"></path>
    <path id="Vector_12" fill="#000000" d="m121.053 154.65 -0.386 0c-0.618 0 -1.236 0 -1.777 -0.077l0 -0.773c0 -0.541 0.309 -0.927 0.85 -1.005 0.463 -0.077 1.081 0.155 1.159 0.696 0 0.309 0.077 0.695 0.154 1.159" stroke-width="1"></path>
    <path id="Vector_13" fill="#000000" d="M121.904 163.845c0.077 0.54 -0.31 0.927 -0.773 1.159 -0.618 0.309 -1.236 0.695 -1.855 0.849 -0.386 0.078 -0.695 0 -0.927 -0.154 -0.541 -0.386 -0.695 -1.314 0 -1.854 0.077 -0.078 0.232 -0.155 0.309 -0.232 0.309 -0.155 0.618 -0.309 0.927 -0.464 -0.154 -1.468 -0.231 -2.936 -0.309 -4.327 -0.077 -1.468 -0.231 -2.936 -0.309 -4.327l0 -0.773c0 -0.541 0.309 -0.927 0.85 -1.004 0.464 -0.077 1.082 0.154 1.159 0.695 0.078 0.387 0.155 0.85 0.232 1.237 0.155 1.313 0.309 2.704 0.386 4.018 0 1.699 0.155 3.477 0.31 5.177" stroke-width="1"></path>
    <path id="Vector_14" fill="#000000" d="M134.962 163.767c-0.077 0.309 -0.232 0.696 -0.386 1.005 -0.464 1.236 -1.005 2.395 -1.623 3.554 -0.773 1.391 -1.622 2.859 -2.704 4.018 -0.927 0.927 -2.241 1.545 -3.477 1.004 -1.082 -0.463 -1.7 -1.622 -1.932 -2.704 -0.232 -1.391 0.309 -2.704 0.695 -4.018 0.464 -1.545 -0.077 -2.782 -0.386 -4.327 -0.927 -4.791 0.386 -10.508 3.786 -14.063 0.155 -0.232 0.387 -0.386 0.541 -0.541 0.541 -0.541 1.236 -0.309 1.545 0.078 0.155 0.154 0.232 0.463 0.232 0.695 0 0.155 -0.077 0.386 -0.232 0.541 -0.077 0.154 -0.154 0.232 -0.309 0.386 -1.313 1.855 -2.472 3.864 -3.013 6.182 -0.541 2.163 -0.618 4.327 -0.232 6.49 0.232 1.314 0.541 2.473 0.464 3.786 -0.078 1.237 -0.696 2.396 -0.927 3.632 -0.078 0.541 0 1.7 0.618 1.854 0.772 0.155 1.545 -1.236 1.854 -1.777 1.159 -1.622 2.009 -3.399 2.859 -5.177 0.077 -0.231 0.232 -0.463 0.309 -0.772 0.077 -0.232 0.155 -0.387 0.232 -0.618 0.154 -0.31 0.309 -0.464 0.618 -0.541 0.773 -0.155 1.777 0.463 1.468 1.313" stroke-width="1"></path>
    <path id="Vector_15" fill="#000000" d="M136.506 139.66c-0.077 0.695 -0.154 1.39 -0.309 2.009l0 0.077c-0.231 1.082 -0.541 2.163 -0.927 3.245 -0.232 0.696 -0.541 1.468 -0.85 2.164 -0.386 0.772 -0.773 1.545 -1.236 2.24 -0.386 0.541 -0.773 1.005 -1.159 1.469 -0.618 0.695 -1.777 -0.078 -1.314 -0.928 0.078 -0.154 0.155 -0.309 0.232 -0.386 0.155 -0.309 0.309 -0.618 0.541 -0.927 0.773 -1.391 1.468 -2.782 2.009 -4.25 0.309 -0.927 0.618 -1.932 0.773 -2.936 0.077 -0.309 0.077 -0.618 0.154 -0.927 0.077 -0.773 0.155 -1.546 0.309 -2.318 0.309 -1.082 1.777 -0.928 1.932 0.154 -0.155 0.309 -0.155 0.773 -0.155 1.314" stroke-width="1"></path>
    <path id="Vector_16" fill="#000000" d="M139.212 146.382c-0.696 1.082 -1.778 1.932 -3.014 2.395 -0.618 0.232 -1.236 0.387 -1.932 0.464 -0.386 0.077 -0.85 0.077 -1.236 0s-0.695 -0.232 -0.927 -0.541 -0.155 -0.773 0.077 -1.082c0.464 -0.618 1.391 -0.541 2.086 -0.618h0.078c0.386 -0.077 1.159 -0.309 1.468 -0.463 0.541 -0.309 0.927 -0.541 1.236 -1.005l0.155 -0.232c0.077 -0.077 0.154 -0.231 0.231 -0.386 0.078 -0.077 0.078 -0.232 0.155 -0.386l0.077 -0.232c0 -0.155 0.077 -0.232 0.077 -0.387l0 -0.154v-0.077l0 -0.464 0 -0.077c0 -0.077 0 -0.077 -0.077 -0.155 0 -0.077 -0.077 -0.232 -0.154 -0.309l-0.155 -0.232c0 -0.077 -0.077 -0.077 -0.077 -0.154l-0.309 -0.309s-0.078 -0.077 -0.155 -0.077c-0.077 -0.078 -0.154 -0.078 -0.232 -0.155l-0.231 -0.077c-0.078 0 -0.155 -0.078 -0.309 -0.078h-0.078l-0.232 0h-0.231c-0.309 0 -0.309 0 -0.541 0.078 -0.387 0.154 -0.85 -0.078 -1.005 -0.464 -0.154 -0.309 -0.077 -0.695 0.155 -0.927 0.077 -0.077 0.077 -0.155 0.154 -0.155 0.619 -0.463 1.314 -0.618 2.087 -0.541 0.541 0.078 1.081 0.232 1.468 0.464 1.004 0.618 1.777 1.545 2.009 2.704 0.386 1.314 0.077 2.628 -0.618 3.632" stroke-width="1"></path>
    <g id="Group">
      <path id="Vector_17" fill="#000000" d="M121.131 138.732c-0.077 -0.232 -0.232 -0.386 -0.464 -0.386 -0.231 0 -0.386 0 -0.618 0.077 -0.077 0 -0.154 0 -0.232 0.077 -0.077 0 -0.231 0.078 -0.309 0.155 -0.077 0 -0.154 0.077 -0.309 0.155 -0.154 0.077 -0.309 0.154 -0.463 0.231 -0.155 0.078 -0.232 0.078 -0.387 0.078l-0.154 0 -0.155 0 -0.463 0 -0.232 0h-0.077c-0.387 -0.078 -0.696 0.154 -0.85 0.463 -0.155 0.309 0 0.696 0.386 0.85 0.386 0.155 0.773 0.309 1.159 0.387 0.464 0 0.927 0 1.391 -0.078 0.232 -0.077 0.386 -0.154 0.541 -0.232 0.077 -0.077 0.231 -0.077 0.309 -0.154 0.077 -0.077 0.154 -0.077 0.154 -0.155 0.309 -0.231 0.078 0 0 0 0.232 -0.154 0.464 -0.386 0.541 -0.618 0.232 -0.309 0.309 -0.541 0.232 -0.85" stroke-width="1"></path>
    </g>
    <path id="Vector_18" fill="#000000" d="M111.163 137.573c0.077 0.928 -1.391 1.159 -1.623 0.309l0 -0.154c0 -0.309 0.077 -0.618 0.155 -0.927 0.077 -0.309 0.309 -0.541 0.618 -0.541s0.618 0.154 0.695 0.463c0 0.078 0.077 0.155 0.077 0.232 0.078 0.232 0.078 0.464 0.078 0.618" stroke-width="1"></path>
    <path id="Vector_19" fill="#000000" d="M145.007 143.291c-0.309 0.618 -1.314 0.773 -1.932 0.232l0 -0.541c0 -0.154 0.077 -0.309 0.077 -0.386s0.078 -0.155 0.078 -0.155c0.077 -0.154 0.309 -0.386 0.463 -0.386 0.155 -0.077 0.309 -0.077 0.387 0 0.386 0.077 0.618 0.386 0.618 0.773v0.077l0 0.155c0.232 0 0.309 0.077 0.309 0.231" stroke-width="1"></path>
    <path id="Vector_20" fill="#000000" d="M145.933 145.455c-0.155 0.154 -0.309 0.309 -0.541 0.386 -0.463 0.155 -0.85 0 -1.236 -0.309 -0.077 -0.077 -0.155 -0.154 -0.232 -0.232 -0.154 -0.154 -0.232 -0.309 -0.386 -0.463 -0.078 -0.155 -0.155 -0.309 -0.232 -0.464 -0.077 -0.232 -0.155 -0.541 -0.155 -0.85l0 -0.541c0 -0.154 0.078 -0.309 0.078 -0.386s0.077 -0.155 0.077 -0.155c0.077 -0.154 0.309 -0.386 0.464 -0.386 0.154 -0.077 0.309 -0.077 0.386 0 0.386 0.077 0.618 0.386 0.618 0.773v0.077l0 0.155c0 0.154 0.077 0.231 0.155 0.386 0 0.077 0.077 0.077 0.077 0.154 0.077 0.078 0.154 0.155 0.154 0.232 0.155 0.155 0.309 0.232 0.464 0.387 0.077 0.077 0.154 0.154 0.232 0.231 0.077 0.155 0.154 0.309 0.154 0.541 0.155 0.077 0 0.309 -0.077 0.464" stroke-width="1"></path>
    <path id="Vector_21" fill="#000000" d="M168.11 165.699c-0.618 4.636 -4.558 7.804 -8.808 9.118 -0.464 0.154 -0.85 0.618 -0.773 1.082 0.386 3.322 -1.236 6.799 -4.095 8.576 -1.468 0.928 -3.245 1.314 -5.023 1.314 -0.85 0 -1.7 -0.154 -2.472 -0.386 -0.773 -0.232 -1.391 -0.618 -2.086 -0.928 6.876 -8.19 12.517 -17.308 16.767 -26.966 4.172 0.232 7.031 4.018 6.49 8.19" stroke-width="1"></path>
    <path id="Vector_22" fill="#000000" d="M169.501 168.944c-1.545 3.709 -4.945 6.259 -8.654 7.65 0.155 3.941 -1.854 7.804 -5.254 9.89 -1.855 1.159 -4.095 1.7 -6.259 1.623 -1.777 -0.077 -3.863 -0.464 -5.331 -1.545 -0.232 -0.155 -0.541 -0.387 -0.696 -0.619 -0.541 -0.463 -0.386 -1.159 0 -1.545 0.309 -0.309 0.773 -0.464 1.236 -0.232 0.155 0.077 0.232 0.077 0.387 0.155 0.695 0.309 1.391 0.695 2.086 0.927 0.773 0.232 1.623 0.386 2.473 0.386 1.777 0.078 3.554 -0.386 5.022 -1.313 2.859 -1.777 4.482 -5.254 4.095 -8.577 -0.077 -0.464 0.309 -1.005 0.773 -1.082 4.25 -1.313 8.19 -4.481 8.809 -9.117 0.54 -4.096 -2.318 -7.959 -6.491 -8.191l-0.464 0c-1.236 0 -1.236 -1.623 -0.077 -1.854 0.464 -0.078 1.005 -0.078 1.468 -0.078 1.777 0.078 3.477 0.928 4.791 2.009 3.168 2.937 3.709 7.65 2.086 11.513" stroke-width="1"></path>
    <path id="Vector_23" fill="#000000" d="M118.581 165.158c0 0.232 -0.154 0.387 -0.231 0.541 -0.541 0.541 -1.623 0.155 -1.778 -0.695 -0.154 -1.314 -0.309 -2.55 -0.927 -3.709 -0.541 -1.159 -1.313 -2.164 -2.241 -3.014 -2.859 -2.781 -6.567 -3.709 -10.431 -3.631 -0.695 0 -1.468 0.077 -2.163 0.154 -0.773 0.078 -1.4685 0.232 -2.1639 0.387 -3.0908 0.695 -6.027 1.777 -8.9632 3.013 -0.6954 0.309 -1.3908 0.541 -2.0089 0.85 -2.009 0.85 -4.018 1.7 -6.1043 2.318 -1.3908 0.464 -2.0862 -1.7 -0.6954 -2.163 3.5544 -1.159 6.8769 -2.782 10.354 -4.096 3.2453 -1.236 6.7224 -2.318 10.2767 -2.627 0.927 -0.077 1.854 -0.154 2.782 -0.077 1.931 0.077 3.786 0.386 5.64 1.082 4.173 1.545 8.345 5.64 8.654 10.276 0.078 0.387 0 0.928 0 1.391" stroke-width="1"></path>
    <path id="Vector_24" fill="#000000" d="M44.789 112.77c-0.5409 0 -0.4636 0.773 0.0773 0.773 0.5409 0.077 0.4636 -0.773 -0.0773 -0.773" stroke-width="1"></path>
    <path id="Vector_25" fill="#000000" d="M99.3407 178.062c-3.3226 1.082 -6.7224 2.009 -10.1995 2.859 -0.4636 0.077 -0.9272 0.232 -1.3908 0.309 -0.3091 0.077 -0.6181 0.155 -0.8499 0.232 -3.2453 0.773 -6.5679 1.391 -9.8904 1.777 -2.7817 0.309 -5.7951 0.309 -8.4995 -0.541 -2.7817 -0.85 -5.177 -2.627 -6.7224 -5.1 -1.5454 -2.472 -2.318 -5.331 -2.8589 -8.19 -0.6182 -3.4 -0.7727 -6.954 -0.7727 -10.431 0 -6.645 0.6954 -13.213 0.2318 -19.858 -0.2318 -3.014 -0.6181 -5.95 -1.3908 -8.809 -0.6954 -2.472 -1.4681 -5.022 -2.9362 -7.109 -1.4681 -1.931 -3.3998 -3.322 -5.0997 -5.022 -1.3136 -1.314 -2.5499 -2.627 -3.7862 -4.018 -1.0818 -1.159 -2.6271 -2.627 -2.3953 -4.404 0.1545 -1.159 1.5453 -2.396 2.7044 -1.777 0.0772 -0.232 0.2318 -0.464 0.4636 -0.619 1.3908 -1.39 3.2453 -0.85 4.7134 0 0.3863 -0.772 1.159 -1.313 2.0862 -1.313s1.6999 0.541 2.3953 1.159c0.7727 0.695 1.5454 1.313 2.3181 2.009 1.4681 1.313 2.9362 2.627 4.4043 3.863 1.3135 1.159 2.7816 2.396 4.2497 3.709 0.6182 0.541 1.2363 1.159 1.8545 1.7 3.2453 3.245 5.7951 7.032 5.2542 11.745 -0.1545 1.236 -2.0089 0.85 -1.9317 -0.386 0.3864 -3.4 -1.6226 -6.491 -3.8634 -8.886 -0.6181 -0.618 -1.2363 -1.237 -1.8544 -1.778 -0.2318 -0.231 -0.4636 -0.463 -0.6954 -0.618 -1.5454 -1.39 -3.0908 -2.704 -4.6362 -4.095l-3.7861 -3.322c-0.6954 -0.619 -1.3908 -1.237 -2.0863 -1.855 -0.309 -0.232 -1.159 -1.236 -1.6226 -1.159s-0.3091 0.85 -0.2318 1.159c0.2318 0.618 0.6954 1.159 1.0818 1.623 1.0817 1.391 2.1635 2.781 3.2452 4.172 2.0863 2.705 1.5454 1.932 3.7089 4.636 0.7727 1.005 -0.9272 2.087 -1.6999 1.082 -2.7816 -3.554 -2.8589 -3.631 -5.6406 -7.186 -1.0817 -1.313 -2.6271 -2.781 -2.8589 -4.559l0 -0.154h-0.0773c-0.5409 -0.232 -3.168 -1.082 -2.9362 0.386 0.0773 0.618 0.6954 1.236 1.159 1.7 0.5409 0.618 1.1591 1.159 1.6999 1.777 1.1591 1.237 2.3181 2.473 3.5544 3.709 1.159 1.236 2.5499 2.395 3.5543 3.786 0.6955 0.927 -0.6954 1.932 -1.5453 1.237 -1.0045 -0.85 -1.7772 -1.932 -2.7044 -2.859 -0.9272 -1.005 -1.9317 -1.855 -2.9362 -2.859 -1.0045 -1.005 -1.9317 -2.087 -2.7817 -3.168 -0.3863 -0.464 -2.4726 -2.473 -2.3953 -3.091 -0.1545 1.004 0.2318 2.086 0.9272 2.936 0.6182 0.85 1.4681 1.468 2.3181 2.164 3.7089 3.09 6.8769 6.799 9.3495 10.895 2.3953 4.095 2.9362 9.658 3.2452 14.294 0.3864 6.491 -0.2318 13.059 -0.2318 19.549 0 3.323 0.1546 6.722 0.7727 9.968 0.4636 2.704 1.3136 5.409 2.9362 7.649 3.3998 4.636 9.504 4.405 14.6037 3.632 3.168 -0.464 6.3361 -1.159 9.5041 -1.855 1.159 -0.309 2.3953 -0.54 3.5543 -0.849 2.2408 -0.541 4.4816 -1.237 6.7224 -1.855 1.3135 -0.541 2.0087 1.545 0.6954 2.009" stroke-width="1"></path>
    <path id="Vector_26" fill="#000000" d="M80.7192 149.473c-0.5409 -5.718 -1.0818 -11.591 -1.6999 -17.386 -0.5409 -5.718 -1.5454 -11.435 -1.7772 -17.153l0 -0.155c-0.0773 -1.313 -0.0773 -2.627 0 -3.863 0.0773 -1.005 0.1546 -2.087 -0.1545 -3.091 -0.6954 -2.241 -3.3226 -2.704 -5.0225 -1.159 -1.6999 1.623 -1.2363 4.095 -2.0089 6.104 -0.6955 1.932 -2.1636 3.168 -3.9407 3.864 -0.1546 0.077 -0.3864 0.154 -0.6182 0.231 -0.7727 0.232 -0.9272 1.005 -0.6954 1.546 0.2318 0.232 0.4636 0.463 0.6954 0.618q0.3477 0.1155 0.6954 0c0.6182 -0.155 1.1591 -0.386 1.6999 -0.696 1.0818 -0.618 2.0863 -1.468 2.7817 -2.395 1.3136 -1.622 1.6999 -3.4 2.009 -5.409 0.0772 -0.772 0.2318 -1.854 0.9272 -2.395 0.6182 -0.541 1.2363 -0.309 1.3908 0.386 0.2318 0.85 0.0773 1.855 0 2.705 -0.0772 1.236 -0.0772 2.395 0 3.631 0.2318 3.941 1.1591 7.959 1.2363 11.977 0.1546 4.25 0.7727 8.422 1.1591 12.672 0.5408 5.872 1.0817 11.745 1.6999 17.695 0.309 3.399 0.5408 6.722 0.9272 10.122 0.1545 1.468 2.3953 1.313 2.2408 -0.155 -0.3864 -5.95 -1.0045 -11.822 -1.5454 -17.694" stroke-width="1"></path>
    <path id="Vector_27" fill="#000000" d="M145.16 142.673c0 0.232 0 0.463 -0.077 0.618 -0.077 -0.155 -0.077 -0.232 -0.154 -0.386l0 -0.155v-0.077c0 -0.309 -0.309 -0.696 -0.619 -0.773l-0.386 0c-0.154 0.077 -0.386 0.232 -0.463 0.387 0 0.077 -0.078 0.154 -0.078 0.154 -0.077 0.155 -0.077 0.232 -0.077 0.386l0 0.541c0 0.309 0.077 0.618 0.155 0.85 0.077 0.155 0.154 0.309 0.231 0.464 0.078 0.154 0.232 0.309 0.387 0.463 0.077 0.078 0.154 0.155 0.231 0.232 -0.772 1.7 -1.622 3.323 -2.472 4.945 -1.314 2.396 -2.705 4.637 -4.25 6.877 -1.236 1.778 -2.55 3.4 -3.863 5.1 -0.232 0.077 -0.464 0.232 -0.618 0.541 -0.078 0.232 -0.155 0.386 -0.232 0.618l-0.078 0.155c-0.154 0.231 -0.231 0.386 -0.231 0.618 -0.773 1.854 -1.7 3.554 -2.859 5.177 -0.309 0.463 -1.159 1.931 -1.855 1.777 -0.695 -0.155 -0.695 -1.314 -0.618 -1.854 0.232 -1.237 0.85 -2.396 0.927 -3.632 0.078 -1.314 -0.231 -2.55 -0.463 -3.786 -0.309 -2.164 -0.232 -4.405 0.232 -6.491 0.54 -2.241 1.699 -4.25 3.013 -6.181 -0.077 0.154 -0.155 0.309 -0.232 0.386 -0.463 0.85 0.696 1.623 1.314 0.927 0.463 -0.463 0.85 -0.927 1.159 -1.468 0.386 0.077 0.85 0 1.236 0 0.618 -0.077 1.314 -0.232 1.932 -0.463 1.236 -0.464 2.241 -1.314 3.013 -2.396 0.696 -1.004 0.927 -2.318 0.696 -3.554 -0.232 -1.159 -0.928 -2.164 -2.009 -2.705 -0.464 -0.231 -1.005 -0.463 -1.468 -0.463 0.077 -0.464 0.077 -1.005 0 -1.391 -0.155 -1.082 -1.623 -1.236 -1.932 -0.154 -0.155 0.772 -0.232 1.545 -0.309 2.318 -0.232 0.231 -0.309 0.54 -0.155 0.927 -0.232 1.004 -0.463 2.009 -0.772 3.013 -0.541 1.468 -1.237 2.859 -2.009 4.25 0 -0.232 -0.078 -0.541 -0.232 -0.695 0 0.231 -0.077 0.386 -0.309 0.618 -0.387 0.386 -1.237 0.541 -1.623 0.077 -0.077 -0.077 -0.154 -0.155 -0.154 -0.232 -2.241 -2.627 -2.937 -6.104 -2.55 -9.504 0.077 -1.004 0.309 -2.009 0.618 -2.936 0 0.077 -0.077 0.077 -0.077 0.155l-0.078 0.077c-0.077 0.077 -0.154 0.154 -0.231 0.154 -0.078 0 -0.155 0.078 -0.232 0.078 -0.078 0 -0.155 0.077 -0.232 0.077s-0.155 0.077 -0.232 0.077c0 0 -0.077 0 -0.077 0.077 -0.077 0 -0.155 0.078 -0.232 0.078s-0.077 0 -0.155 0.077c-0.154 0.077 -0.386 0.077 -0.54 -0.077 -0.078 -0.078 -0.232 -0.155 -0.309 -0.232 -0.078 -0.077 -0.078 -0.155 -0.078 -0.232l0 -0.154c0 -0.078 0 -0.155 0.078 -0.31 0.077 -0.077 0.077 -0.077 0.077 -0.154 0.077 -0.077 0.077 -0.155 0.154 -0.155 0.078 -0.077 0.155 -0.154 0.232 -0.231l0.077 -0.078 0.387 -0.309s0.077 -0.077 0.154 -0.077c0.078 0 0.078 -0.077 0.155 -0.077l0.077 0h0.077c0.232 -0.078 0.464 -0.078 0.619 0.077 0.077 0.077 0.154 0.077 0.154 0.155 0.077 0.077 0.077 0.077 0.155 0.154 0.077 0.077 0.077 0.155 0.077 0.309l0 0.155c0.232 -0.773 0.541 -1.546 0.85 -2.241 0.077 -0.232 0.154 -0.386 0.232 -0.618 0.077 -0.078 0.077 -0.232 0.154 -0.309 -0.232 -0.078 -0.463 -0.078 -0.695 -0.155h-0.232l-0.386 0c-0.232 0 -0.464 0 -0.619 0.077 -0.386 0.078 -0.85 -0.077 -0.927 -0.463 -0.154 -0.387 0.077 -0.773 0.464 -0.927 1.082 -0.387 2.163 -0.464 3.245 -0.155 0.155 -0.386 0.386 -0.695 0.541 -1.004 -2.704 -0.85 -5.563 -0.85 -8.19 0.154h-0.078c-0.541 0.232 -1.004 0.464 -1.468 0.773 -0.695 0.463 -1.391 1.004 -2.009 1.622 -0.85 0.85 -1.468 1.932 -2.163 3.014 -0.696 1.082 -1.391 2.086 -2.009 3.245 -0.541 1.082 -1.005 2.164 -1.237 3.323 -0.386 2.009 -0.154 4.018 0.619 5.872 0.772 1.777 2.163 3.245 3.94 4.018 0.85 0.386 1.855 0.618 2.782 0.695 0.541 0 1.004 -0.077 1.545 -0.077 0.541 -0.077 1.005 -0.232 1.546 -0.077 0.541 0.154 1.004 0.773 0.618 1.313 -0.541 0.928 -1.7 1.159 -2.705 1.237 -0.077 -0.387 -0.154 -0.85 -0.231 -1.237 -0.078 -0.463 -0.696 -0.772 -1.159 -0.695 -0.541 0.077 -0.773 0.541 -0.85 1.005l0 0.772c0 1.468 0.154 2.936 0.309 4.327 0.077 1.468 0.231 2.936 0.309 4.327 -0.309 0.155 -0.618 0.309 -0.927 0.464 -0.31 -4.636 -4.405 -8.731 -8.655 -10.277 -1.854 -0.695 -3.786 -1.004 -5.64 -1.082 0.773 -0.772 1.7 -1.39 2.627 -2.009 1.391 -0.927 2.782 -1.854 3.786 -3.168 0.464 -0.618 0.85 -1.313 1.159 -2.163 0.309 -0.927 -1.159 -1.391 -1.622 -0.541 0 0 0 0.077 -0.078 0.077 -0.077 -1.159 0 -2.395 0.232 -3.554 0.309 0.386 0.773 0.541 1.236 0.309 0.387 -0.154 0.696 -0.695 0.541 -1.159 -0.077 -0.232 -0.232 -0.386 -0.309 -0.618v-0.077c0 -0.078 -0.077 -0.078 -0.077 -0.155 -0.155 -0.309 -0.232 -0.541 -0.309 -0.85 0 -0.077 -0.077 -0.154 -0.077 -0.232 -0.078 -0.231 -0.078 -0.463 -0.155 -0.695 0 -0.077 0 -0.155 -0.077 -0.309 0 -0.077 -0.078 -0.232 -0.078 -0.309 0 -0.078 -0.077 -0.155 -0.077 -0.309 -0.077 -0.309 -0.463 -0.541 -0.695 -0.464 -0.309 0 -0.541 0.232 -0.618 0.541 -0.078 0.309 -0.155 0.618 -0.155 0.85 -0.773 -3.786 0.85 -7.65 3.786 -10.045 5.564 -4.636 14.063 -4.482 20.322 -1.391 6.49 3.323 10.817 9.581 11.667 16.613" stroke-width="1"></path>
    <path id="Vector_28" fill="#000000" d="M111.704 141.359c-0.463 0.232 -0.927 0.078 -1.236 -0.309 -0.155 -0.154 -0.155 -0.309 -0.232 -0.463 -0.077 -0.232 -0.232 -0.387 -0.309 -0.618 -0.154 -0.309 -0.232 -0.696 -0.309 -1.005 -0.077 -0.386 -0.154 -0.85 -0.077 -1.236 0 -0.309 0.077 -0.618 0.154 -0.927 0.078 -0.309 0.309 -0.541 0.618 -0.541 0.31 0 0.619 0.154 0.696 0.463 0 0.078 0.077 0.155 0.077 0.232 0 0.155 0.077 0.232 0.077 0.309 0 0.078 0 0.155 0.078 0.232 0.077 0.232 0.077 0.464 0.154 0.695 0 0.078 0.078 0.155 0.078 0.232 0.077 0.309 0.231 0.618 0.309 0.85 0 0.077 0.077 0.077 0.077 0.155v0.077c0.077 0.232 0.232 0.386 0.309 0.618 0.232 0.541 -0.077 1.082 -0.464 1.236" stroke-width="1"></path>
    <path id="Vector_29" fill="#000000" d="M111.858 145.069c-0.232 0.772 -0.695 1.468 -1.159 2.086 -1.005 1.313 -2.395 2.241 -3.786 3.168 -0.927 0.618 -1.855 1.236 -2.627 2.009 -0.078 0.077 -0.155 0.154 -0.232 0.232 -0.309 0.386 -0.618 0.772 -0.773 1.236 -0.077 0.232 -0.154 0.541 -0.232 0.773 -0.695 0 -1.468 0.077 -2.163 0.154 -0.077 -0.773 0.232 -1.623 0.695 -2.395 0.155 -0.309 0.309 -0.541 0.541 -0.773 0.773 -1.004 1.777 -1.854 2.782 -2.55 1.932 -1.313 4.327 -2.318 5.409 -4.481l0.077 -0.078c0.309 -0.772 1.777 -0.309 1.468 0.619" stroke-width="1"></path>
    <path id="Vector_30" fill="#000000" d="M94.1638 172.267c-0.3863 1.931 -1.2363 3.863 -2.318 5.486 -0.7727 1.159 -1.7 2.241 -2.7817 3.091 -0.4636 0.077 -0.9272 0.231 -1.3908 0.309 -0.3091 0.077 -0.6182 0.154 -0.85 0.231 -0.3863 -0.463 -0.3863 -1.236 0.1545 -1.622 0.4637 -0.309 0.85 -0.696 1.2363 -1.082 2.4726 -2.473 3.9407 -6.027 3.8635 -9.581 -0.0773 -4.25 -2.3181 -7.959 -5.3316 -10.818 -0.6181 -0.618 0.0773 -1.777 0.9273 -1.313 0.9272 0.54 1.7771 1.081 2.5498 1.931 0.6954 0.773 1.3908 1.623 1.9317 2.55 2.0863 3.245 2.7817 7.109 2.009 10.818" stroke-width="1"></path>
    <path id="Vector_31" fill="#000000" d="M104.673 169.408c0.772 -0.773 -0.387 -2.164 -1.237 -1.468 -6.3358 4.559 -7.9584 13.831 -4.1723 20.553 0.3091 0.541 1.0813 0.696 1.6223 0.309 0.541 -0.386 0.618 -1.004 0.387 -1.622 -1.4684 -3.091 -2.0093 -6.568 -1.237 -9.891 0.619 -3.091 2.396 -5.718 4.637 -7.881" stroke-width="1"></path>
    <path id="Vector_32" fill="#000000" d="M100.809 187.489c-0.386 -0.078 -0.773 0.077 -0.9272 0.463 -0.2318 0.387 -0.3864 0.85 -0.5409 1.236 -0.1545 0.387 -0.2318 0.696 -0.3091 1.082 -0.0772 0.387 -0.1545 0.696 -0.2318 1.082 -0.0773 0.541 -0.2318 1.159 0.0773 1.7 0.3863 0.541 1.1587 0.618 1.6227 0.154 0.232 -0.231 0.309 -0.54 0.386 -0.85l0 -0.231 0 -0.309c0.078 -0.387 0.078 -0.696 0.155 -1.082 0.077 -0.773 0.309 -1.546 0.309 -2.318 0.154 -0.464 -0.232 -0.85 -0.541 -0.927" stroke-width="1"></path>
    <path id="Vector_33" fill="#000000" d="M139.056 191.584c-1.855 1.236 -4.095 1.314 -6.182 1.314 -2.627 0 -5.254 -0.155 -7.881 -0.155 -5.409 -0.154 -10.895 -0.309 -16.304 -0.386 -3.09 -0.077 -6.104 -0.155 -9.1947 -0.155 -1.159 0 -1.0045 1.7 0.0773 1.777 5.5634 0.309 11.1264 0.387 16.7674 0.541 5.486 0.155 10.972 0.309 16.458 0.464 2.55 0.077 5.254 -0.077 7.418 -1.545 1.004 -0.85 -0.077 -2.55 -1.159 -1.855" stroke-width="1"></path>
    <path id="Vector_34" fill="#000000" d="M158.297 158.668c-0.85 0.154 -1.7 0.463 -2.55 0.54 -0.773 0.078 -1.623 0.078 -2.395 -0.077 -1.623 -0.232 -3.168 -0.927 -4.482 -2.009 -2.473 -2.086 -3.709 -5.563 -3.323 -8.731 0.155 -1.159 -1.545 -1.546 -1.854 -0.386 -0.927 3.94 0.541 8.19 3.632 10.817 1.545 1.314 3.477 2.164 5.408 2.55 1.005 0.154 2.009 0.232 3.014 0.154 1.004 -0.077 2.241 -0.231 3.168 -0.772 0.927 -0.618 0.464 -2.241 -0.618 -2.086" stroke-width="1"></path>
    <path id="Vector_35" fill="#000000" d="M121.902 130.078c-0.541 -0.772 -1.391 -1.159 -2.318 -0.927 -0.309 0.077 -0.464 0.386 -0.386 0.695 0.077 0.31 0.309 0.464 0.618 0.464 0.077 0 0.232 0 0.232 0.077 0.154 0.078 0.154 0.078 0.231 0.155 0.232 0.154 0.387 0.309 0.464 0.541 0.077 0.154 0.077 0.386 0.077 0.618 0 0.309 -0.154 0.618 -0.232 0.85 -0.231 0.541 -0.618 1.004 -1.081 1.391 -0.232 0.154 -0.464 0.386 -0.773 0.541 -0.232 0.154 -0.541 0.231 -0.85 0.309 -0.386 0.154 -0.618 0.541 -0.464 0.927 0.155 0.386 0.541 0.541 0.928 0.463 0.463 -0.077 0.85 -0.309 1.236 -0.54 0.386 -0.232 0.695 -0.464 1.004 -0.773 0.696 -0.618 1.237 -1.314 1.469 -2.164 0.463 -0.85 0.386 -1.854 -0.155 -2.627" stroke-width="1"></path>
    <path id="Vector_36" fill="#000000" d="M112.863 105.275c0 0.232 -0.077 0.464 -0.077 0.618 0 0.077 -0.077 0.155 -0.077 0.232 0.154 0.695 -0.155 1.468 -1.082 1.468 -6.027 0 -11.9768 -0.077 -18.0038 -0.077 -10.5857 -0.077 -21.2488 -0.077 -31.8346 -0.155 -5.3315 0 -10.663 -0.077 -15.9945 -0.077 -5.3316 0 -10.6631 0 -15.9946 -0.232 -0.3863 0 -0.6954 -0.232 -0.85 -0.463 -0.1545 0.077 -0.3863 0.154 -0.5408 0.154 -0.4636 0 -0.85 -0.386 -0.85 -0.85 0 -0.309 -0.0773 -0.541 -0.0773 -0.85l0 -0.85c0 -0.154 0 -0.309 0.0773 -0.541l0.0773 -0.077c0.0773 -0.309 0.3863 -0.618 0.7727 -0.618 3.0134 -0.155 6.0269 -0.077 9.0404 -0.077 3.0134 0 6.0269 0.077 9.0404 0.077 10.663 0.077 21.3261 0.232 31.9891 0.386 5.3316 0.078 10.6631 0.155 15.9946 0.232 2.6271 0 5.2543 0.077 7.9588 0.077 1.391 0 2.704 0 4.095 0.078 1.314 0 2.627 0 3.941 0.154 0.077 0 0.154 0.077 0.232 0.077l0.309 0 0.695 0c0.155 0 0.386 0 0.541 0.078 0.154 0.077 0.232 0.154 0.309 0.309 0.077 0.077 0.155 0.232 0.232 0.386 0.154 0.155 0.154 0.386 0.077 0.541" stroke-width="1"></path>
    <path id="Vector_37" fill="#000000" d="M29.4899 97.0846c-0.1546 -0.9272 -0.2318 -1.9317 -0.3864 -2.8589 -0.2318 -1.8545 -0.3863 -3.7862 -0.5408 -5.6406 -0.3091 -3.7862 -0.2318 -7.6496 -0.4636 -11.4357 -0.0773 -1.0818 -1.9318 -1.3136 -2.009 -0.1546 -0.3864 3.7862 -0.1546 7.7269 0.1545 11.5903 0.1545 1.8544 0.3091 3.7861 0.5409 5.6406 0.0773 0.9272 0.2318 1.9317 0.3863 2.8589 0.1546 0.9272 0.0773 2.2408 0.6954 2.9364 0.3864 0.541 1.4681 0.695 1.7772 -0.0775 0.3091 -0.9272 0 -1.9317 -0.1545 -2.8589" stroke-width="1"></path>
    <path id="Vector_38" fill="#000000" d="M56.7662 77.8448c-0.0773 -1.5453 -0.9272 -2.7816 -2.4726 -3.2452 -1.4681 -0.4636 -3.2453 -0.2318 -4.7906 -0.2318 -3.4771 0 -6.9542 0.1545 -10.4313 0.309 -1.9317 0.0773 -3.9407 0.2318 -5.8724 0.3864 -1.9317 0.1545 -4.0179 0.1545 -5.7951 0.7727 -0.7727 0.309 -0.7727 1.4681 0.0773 1.6226 1.5453 0.3091 3.2452 0.0773 4.8679 0 1.6226 -0.0773 3.2452 -0.2318 4.9451 -0.3091 3.2453 -0.1545 6.5679 -0.2318 9.8131 -0.309 1.6227 0 3.1681 -0.0773 4.7907 -0.0773 0.6181 0 1.2363 -0.0773 1.7772 0.1545 0.5408 0.1546 0.6181 0.5409 0.6181 1.0818 0.0773 1.4681 0 3.0135 0 4.5588 0 1.6227 0 3.2453 -0.0773 4.8679 0 1.7772 -0.0772 3.6317 -0.0772 5.4088l0 2.7817c0 0.9272 -0.0773 1.8544 0.1545 2.7817 0.3091 1.0817 1.7772 0.8499 2.0863 -0.0773 0.2318 -0.85 0.1545 -1.6999 0.1545 -2.5499 0 -0.9272 0 -1.8544 0.0773 -2.7816 0 -1.6999 0.0772 -3.4771 0.0772 -5.177s0.0773 -3.4771 0.0773 -5.177c0 -1.4681 0.1545 -3.168 0 -4.7907" stroke-width="1"></path>
    <path id="Vector_39" fill="#000000" d="M54.9893 98.089c-4.327 -0.0772 -8.7313 0.1546 -13.0583 0.2318 -2.1636 0 -4.3271 0.0773 -6.4906 0.1546 -1.0045 0 -2.0862 0.0772 -3.0907 0.0772 -1.0818 0.0773 -2.3181 -0.0772 -3.2453 0.4637 -0.6181 0.309 -0.4636 1.2367 0.0773 1.5457 0.9272 0.463 2.1635 0.309 3.168 0.309l3.2452 0c2.1636 0 4.3271 -0.078 6.4906 -0.078 4.327 -0.077 8.7313 0 13.0584 -0.231 1.5453 -0.078 1.3908 -2.473 -0.1546 -2.473" stroke-width="1"></path>
    <path id="Vector_40" fill="#000000" d="M97.6404 78.2311c-0.0772 -2.3181 -0.1545 -4.7907 -0.5408 -7.1087 -0.1546 -1.0045 -0.4637 -2.009 -1.2363 -2.7817 -0.7727 -0.6954 -1.8545 -0.9272 -2.859 -0.9272 -2.3953 -0.1546 -4.8679 -0.0773 -7.3405 -0.0773 -5.0224 0 -10.0449 0.0773 -14.9901 0.3091 -2.7044 0.0773 -5.486 0.2318 -8.1904 0.4636 -1.159 0.0773 -2.4726 0.3863 -3.2453 1.3136 -0.6954 0.8499 -0.9272 2.0089 -0.4636 2.9362 -0.2318 4.0952 -0.1545 8.2677 -0.1545 12.3629l0 6.336c0 2.009 0.0772 3.9407 0.5408 5.8724 0.3864 1.6999 1.2363 3.477 3.0135 4.173 1.7772 0.695 3.9407 0.54 5.7951 0.54 4.4043 0.155 8.8859 0.155 13.2902 0.078 2.4726 0 4.8679 -0.078 7.3405 -0.155s4.8679 -0.309 7.3405 -0.386c0.4636 0 1.0045 -0.387 1.0045 -0.85 0.4636 -4.8681 0.7727 -9.8132 0.7727 -14.7584 0.0773 -2.3954 0 -4.8679 -0.0773 -7.3405M83.423 99.4026c-4.1725 0.0773 -8.2677 0.0773 -12.4402 0 -2.0862 -0.0772 -4.0952 -0.0772 -6.1815 -0.1545 -0.6181 0 -1.3135 -0.0773 -1.8544 -0.3864 -0.6954 -0.3863 -0.9272 -1.159 -1.159 -1.8544 -0.5409 -1.7772 -0.6182 -3.6316 -0.6954 -5.4861l0 -5.8724c0 -4.2497 0.0772 -8.4995 -0.2318 -12.7493 0.309 -0.3863 0.3863 -0.8499 0.1545 -1.3908 0.0773 0.1545 0.1545 -0.2318 0.2318 -0.3091 0.2318 -0.1545 0.5409 -0.2318 0.8499 -0.309 1.0045 -0.1546 2.0863 -0.1546 3.1681 -0.2318 2.2407 -0.1546 4.4815 -0.3091 6.7223 -0.3864 4.4043 -0.2318 8.8086 -0.3091 13.2129 -0.3863l6.7224 0c0.6181 0 1.6999 -0.1546 2.2408 0.309 0.4636 0.3864 0.5408 1.2363 0.5408 1.8545 0.4636 4.4043 0.6182 8.8859 0.6955 13.2902 0.0772 4.6361 -0.0773 9.2722 -0.4637 13.831 -1.7771 0.0773 -3.5543 0.0773 -5.2542 0.0773 -2.1635 0.0773 -4.1725 0.0773 -6.2588 0.1545" stroke-width="1"></path>
    <path id="Vector_41" fill="#000000" d="M30.7256 67.9545c-0.0773 -1.0045 -0.1545 -2.009 -0.2318 -3.0908 -0.1545 -2.0862 -0.2318 -4.1725 -0.3091 -6.2587 -0.0773 -2.0863 -0.0773 -4.0953 0 -6.1815 0 -1.0045 0 -2.0863 0.0773 -3.0908 0 -1.0817 0.1545 -2.2407 0.0773 -3.3225 -0.0773 -1.159 -1.8545 -1.3136 -2.0863 -0.1545 -0.2318 1.0045 -0.2318 2.1635 -0.3091 3.2452 -0.0772 1.0818 -0.0772 2.1636 -0.1545 3.2453 -0.0773 2.0863 -0.0773 4.1725 0 6.2588 0.0773 2.0862 0.1545 4.1725 0.2318 6.2587 0.0773 1.0045 0.1545 2.009 0.2318 3.0908 0.0773 1.0817 0.0773 2.318 0.3864 3.3225 0.3863 1.0045 2.0862 1.0818 2.2407 -0.1545 0.1546 -1.0045 -0.0772 -2.0863 -0.1545 -3.168" stroke-width="1"></path>
    <path id="Vector_42" fill="#000000" d="M56.9976 70.6591c-0.85 -0.7727 -2.2408 -0.3863 -3.2453 -0.3091 -1.159 0.0773 -2.2408 0.0773 -3.3998 0.1546 -2.2408 0.0772 -4.4816 0.1545 -6.7224 0.0772 -2.2407 0 -4.4815 -0.0772 -6.7223 -0.1545s-4.4816 -0.3863 -6.7224 -0.2318c-1.159 0.0773 -1.2363 1.6999 -0.1545 2.009 2.1635 0.5409 4.4816 0.4636 6.7224 0.6181 2.318 0.0773 4.5588 0.1546 6.8768 0.2318 2.2408 0 4.4816 0 6.7224 -0.0772 1.159 -0.0773 2.2408 -0.0773 3.3998 -0.1546 1.0045 -0.0772 2.6271 0.1546 3.3226 -0.6954 0.3863 -0.3863 0.3863 -1.0817 -0.0773 -1.4681" stroke-width="1"></path>
    <path id="Vector_43" fill="#000000" d="M58.8514 47.0148c-0.0773 -1.6999 0.2318 -4.1725 -1.8544 -4.7906 -0.85 -0.2318 -1.7772 -0.2318 -2.6272 -0.2318 -1.0817 -0.0773 -2.2408 -0.0773 -3.3998 -0.1546 -4.0952 -0.0773 -8.1132 0 -12.2084 0.2318 -2.3181 0.1546 -4.5588 0.3091 -6.8769 0.5409 -1.0045 0.0773 -2.009 0.2318 -2.7817 0.85 -0.8499 0.6954 -1.3135 1.6226 -0.9272 2.7043 0.3091 1.0045 1.7772 0.85 2.009 -0.0772 0.1545 -0.5409 0.6181 -0.7727 1.0818 -0.85 0.8499 -0.2318 1.8544 -0.2318 2.7816 -0.309 1.7772 -0.1546 3.5544 -0.3091 5.3315 -0.3864 3.6317 -0.2318 7.2633 -0.3091 10.8949 -0.2318 1.7772 0 3.5543 0.0773 5.3315 0.1545 0 0 0.6954 0.0773 0.6182 0 0.1545 0.1546 0.0772 0.5409 0.0772 0.6955 0.0773 1.0044 0.0773 1.9317 0.0773 2.9362 0.0773 3.5543 0 7.1859 -0.1545 10.7403 -0.0773 2.009 -0.2318 4.0952 -0.3091 6.1042 -0.0773 1.0045 -0.1545 2.009 -0.2318 3.0135 -0.0773 1.0044 -0.2318 2.0862 -0.1545 3.0907 0.0772 0.8499 1.5453 1.3908 1.8544 0.3863 0.6954 -1.8544 0.6954 -4.0952 0.8499 -6.0269 0.1546 -2.0863 0.3091 -4.0952 0.3864 -6.1815 0.3091 -4.0179 0.3091 -8.1132 0.2318 -12.2084" stroke-width="1"></path>
    <path id="Vector_44" fill="#FFC931" d="M78.6326 59.764c-0.1546 -2.3181 -0.3864 -4.5589 -0.7727 -6.8769 -0.1546 -1.1591 -0.3864 -2.3181 -0.6182 -3.4771 -0.2318 -1.0045 -0.309 -2.0863 -0.9272 -2.8589 -1.3908 -2.009 -4.327 -1.3909 -6.336 -1.3136 -2.7044 0.1545 -5.3315 0.3091 -8.0359 0.4636 -0.3864 0 -0.6955 0.2318 -0.85 0.4636 -0.3863 0 -0.9272 0.2318 -0.9272 0.6954 -0.1545 2.3954 -0.0773 4.7134 0 7.1087 0.0773 2.4726 0.2318 4.8679 0.3091 7.3405 0.0772 1.8545 0.2318 4.2498 2.6271 4.4816 1.0818 0.0773 2.2408 -0.0773 3.3225 -0.0773 1.2363 -0.0772 2.3954 -0.1545 3.6317 -0.1545 1.2363 -0.0773 2.3953 -0.0773 3.6316 -0.1545 0.9272 -0.0773 1.9317 -0.0773 2.7816 -0.4637 2.0863 -1.0817 2.3181 -3.168 2.1636 -5.1769m-2.5499 2.4726c-0.3863 0.5408 -1.3136 0.5408 -1.9317 0.6181 -1.0045 0.0773 -2.009 0.0773 -3.0135 0.1545 -2.009 0.0773 -4.0952 0.2318 -6.1042 0.3091 -0.4636 0 -1.6999 0.3091 -2.009 -0.1545 -0.3863 -0.5409 -0.2318 -1.6227 -0.2318 -2.2408 -0.0772 -2.3181 -0.2318 -4.6361 -0.3091 -7.0314 -0.0772 -2.009 -0.1545 -4.018 -0.4636 -5.9497l0.0773 0c2.009 -0.1545 4.018 -0.2318 6.1042 -0.3091l3.0135 -0.1545c0.7727 -0.0773 1.6226 -0.1546 2.4726 0 0.7727 0.1545 0.9272 0.6181 1.159 1.3135 0.2318 0.9273 0.3863 1.9318 0.6182 2.859 0.3863 1.9317 0.6181 3.9407 0.8499 5.9496 0.0773 1.0045 0.1545 1.9318 0.2318 2.9362 -0.0773 0.3864 -0.0773 1.2363 -0.4636 1.7" stroke-width="1"></path>
    <path id="Vector_45" fill="#FFC931" d="M76.0824 62.2367c-0.3864 0.5408 -1.3136 0.5408 -1.9317 0.6181 -1.0045 0.0773 -2.009 0.0773 -3.0135 0.1545 -2.009 0.0773 -4.0952 0.2318 -6.1042 0.3091 -0.4636 0 -1.6999 0.3091 -2.009 -0.1545 -0.3863 -0.5409 -0.2318 -1.6227 -0.2318 -2.2408 -0.0773 -2.3181 -0.2318 -4.6361 -0.3091 -7.0314 -0.0772 -2.009 -0.1545 -4.018 -0.4636 -5.9497l0.0773 0c2.009 -0.1545 4.018 -0.2318 6.1042 -0.3091l3.0135 -0.1545c0.7727 -0.0773 1.6226 -0.1546 2.4726 0 0.7727 0.1545 0.9272 0.6181 1.159 1.3135 0.2318 0.9273 0.3863 1.9318 0.6181 2.859 0.3864 1.9317 0.6182 3.9407 0.85 5.9496 0.0773 1.0045 0.1545 1.9318 0.2318 2.9363 -0.0773 0.3863 -0.0773 1.2362 -0.4636 1.6999" stroke-width="1"></path>
    <path id="Vector_46" fill="#FFC931" d="M98.4909 54.5098c-0.0772 -1.3908 -0.2318 -2.7044 -0.4636 -4.018 -0.1545 -1.2363 -0.3091 -2.7816 -1.0045 -3.8634 -0.6954 -1.0045 -1.8544 -1.4681 -3.0135 -1.6226 -1.3135 -0.1546 -2.6271 -0.1546 -3.9406 -0.2318 -2.9362 -0.0773 -5.8724 0 -8.8086 0.1545 -0.6182 0.0773 -0.9273 0.3863 -1.0818 0.85 -0.3091 0.1545 -0.4636 0.4636 -0.5409 0.9272 -0.1545 2.318 0 4.7134 0.0773 7.1087 0.0773 2.318 0.0773 4.6361 0.1545 6.9541 0.0773 2.009 0.5409 3.9407 2.7044 4.5589 0.9272 0.309 2.009 0.1545 2.9362 0.1545 1.159 -0.0773 2.3181 -0.1545 3.4771 -0.2318 2.7044 -0.2318 5.3315 -0.6181 8.0359 -1.0818 0.4636 -0.0772 1.0045 -0.3863 1.0818 -0.9272 0.3863 -2.9362 0.5409 -5.8724 0.3863 -8.7313m-2.6271 7.4178c-2.3953 0.3863 -4.8679 0.6954 -7.2632 0.8499 -1.3136 0.0773 -2.6272 0.2318 -3.8635 0.2318 -0.8499 0 -1.8544 0.1546 -2.2408 -0.8499 -0.3863 -1.0045 -0.1545 -2.3954 -0.2318 -3.4771 0 -1.3136 -0.0772 -2.6271 -0.0772 -3.8634 -0.0773 -2.4726 0 -5.0225 -0.2318 -7.5723 2.3953 -0.1546 4.7906 -0.2319 7.2632 -0.2319 1.3136 0 2.5499 0.0773 3.8634 0.1546 0.6954 0.0773 1.7772 0 2.1635 0.7727 0.4636 0.9272 0.5409 2.2408 0.6955 3.3225 0.1545 1.2363 0.309 2.5499 0.3863 3.7862 -0.0773 2.3953 -0.1545 4.6361 -0.4636 6.8769" stroke-width="1"></path>
    <path id="Vector_47" fill="#FFC931" d="M95.8644 61.9275c-2.3953 0.3863 -4.8679 0.6954 -7.2633 0.8499 -1.3135 0.0773 -2.6271 0.2318 -3.8634 0.2318 -0.8499 0 -1.8544 0.1546 -2.2408 -0.8499 -0.3863 -1.0045 -0.1545 -2.3954 -0.2318 -3.4771 0 -1.3136 -0.0772 -2.6271 -0.0772 -3.8634 -0.0773 -2.4726 0 -5.0225 -0.2318 -7.5723 2.3953 -0.1546 4.7906 -0.2319 7.2632 -0.2319 1.3136 0 2.5499 0.0773 3.8634 0.1546 0.6954 0.0773 1.7772 0 2.1635 0.7727 0.4636 0.9272 0.5409 2.2408 0.6955 3.3225 0.1545 1.2363 0.309 2.5499 0.3863 3.7862 -0.0773 2.3953 -0.1545 4.6361 -0.4636 6.8769" stroke-width="1"></path>
    <path id="Vector_48" fill="#FFC931" d="M80.487 25.7658c-0.4637 -2.0863 -0.9273 -4.4043 -3.3999 -4.7134 -1.159 -0.1545 -2.3953 -0.0773 -3.5543 -0.0773l-3.6316 0c-2.859 0.0773 -5.6406 0.1546 -8.4996 0.3864 -0.8499 0.0772 -1.159 0.7727 -1.0817 1.3908 -0.0773 0.0773 -0.0773 0.1545 -0.0773 0.3091 -1.0045 5.0224 -0.7727 10.4312 0.0773 15.3764 0.1545 1.0045 0.3863 2.009 1.0817 2.8589 0.7727 0.9273 1.9318 1.0818 3.0908 1.1591 2.6271 0.1545 5.2542 0.1545 7.8814 0 2.9362 -0.1546 5.8724 -0.5409 8.8086 -1.1591 0.5409 -0.0772 0.8499 -0.7727 0.8499 -1.2363 0 -4.7906 -0.4636 -9.5813 -1.5453 -14.2946M66.5014 40.0604c-0.9273 0 -2.0863 0.0773 -2.9362 -0.2318 -0.6954 -0.309 -0.7727 -1.3135 -0.85 -1.9317 -0.3091 -2.2408 -0.5409 -4.5588 -0.6181 -6.7996 -0.0773 -2.4726 0.0772 -4.9452 0.1545 -7.4178 2.6271 -0.2318 5.2543 -0.3091 7.8814 -0.3863 1.4681 0 2.9362 -0.0773 4.4816 0 0.8499 0 2.4725 -0.3091 2.9362 0.6954 0.5408 1.159 0.6954 2.5499 0.9272 3.7862 0.2318 1.3908 0.4636 2.7043 0.6181 4.0952 0.3091 2.4726 0.3864 4.9452 0.3864 7.4178 -4.2498 0.6181 -8.5768 0.9272 -12.9811 0.7726" stroke-width="1"></path>
    <path id="Vector_49" fill="#FFC931" d="M86.2826 76.8404c-1.159 1.0045 -2.0862 2.3953 -3.0907 3.6316s-1.9317 2.4726 -2.9362 3.7861c-1.6226 2.0863 -3.2453 4.2498 -4.8679 6.3361 -0.9272 -1.3136 -1.7772 -2.6272 -2.5499 -4.018 -1.0817 -1.8544 -1.9317 -3.8634 -2.7816 -5.7951 -0.5409 -1.3136 -2.5499 -0.6954 -2.1636 0.6954 1.2363 4.327 3.6317 8.4222 6.3361 11.8993 0.4636 0.6182 1.4681 0.85 2.0089 0.1546 1.9317 -2.5499 3.9407 -5.0998 5.8724 -7.6496 1.0045 -1.2363 1.9318 -2.5499 2.859 -3.7862 1.0045 -1.3135 2.0862 -2.5498 2.7816 -4.0179 0.6954 -1.2363 -0.6181 -2.009 -1.4681 -1.2363" stroke-width="1"></path>
    <path id="Vector_50" fill="#FFC931" d="M135.966 49.2557c-4.713 -3.168 -10.74 -4.0952 -15.994 -2.3181 0.231 -1.8544 0.154 -3.7089 -0.387 -5.486 -0.927 -3.2453 -3.013 -6.1815 -5.563 -8.345 -6.336 -5.4861 -15.9173 -7.6496 -23.876 -4.7134 -0.9272 0.3863 -0.4636 1.6999 0.4636 1.4681 6.4906 -1.6999 13.6764 -0.7727 19.3944 2.7817 4.791 2.9362 8.654 8.1132 7.959 13.9083 -0.078 0.4636 -0.155 0.9272 -0.232 1.3136 -0.464 0.2318 -0.927 0.5408 -1.391 0.8499 -1.391 0.9272 -2.627 2.009 -3.632 3.3226 -0.772 1.0817 -2.163 3.0134 -0.695 4.0952 1.468 1.0817 3.4 -0.7727 4.404 -1.7772 1.082 -1.0817 1.932 -2.3953 2.55 -3.8634 0.155 -0.3864 0.309 -0.7727 0.464 -1.2363 4.636 -2.0863 9.967 -1.6226 14.449 1.0045 6.491 3.7861 9.813 10.9721 10.431 18.2353 0.077 1.2363 2.009 1.1591 1.932 -0.0772 -0.464 -7.4951 -3.863 -14.9128 -10.277 -19.1626m-21.326 4.1725c-0.232 0.2318 -0.463 0.3863 -0.695 0.5409 -0.078 0.0772 -0.155 0.0772 -0.232 0.1545 0.077 -0.1545 0.232 -0.3091 0.309 -0.4636 0.695 -1.0045 1.545 -1.8545 2.473 -2.5499 -0.464 0.85 -1.082 1.6227 -1.855 2.3181" stroke-width="1"></path>
    <path id="Vector_51" fill="#FFC931" d="M55.5299 23.3707c-0.2318 -0.0773 -0.5409 -0.1546 -0.7727 -0.2318 -0.0772 0 -0.2318 -0.0773 -0.309 -0.0773 -0.1546 -0.0773 -0.3091 -0.1546 -0.4637 -0.1546 -0.5408 -0.2318 -1.0817 -0.5408 -1.5453 -0.8499 -0.1546 -0.0773 -0.2318 -0.1545 -0.3864 -0.2318 -0.0772 0 -0.2318 -0.1545 -0.2318 -0.1545 -0.2318 -0.1546 -0.4636 -0.3091 -0.6181 -0.4637 -0.4636 -0.3863 -0.85 -0.7726 -1.3136 -1.159 -0.4636 -0.3863 -1.3136 -1.2363 -1.9317 -0.6181 -0.5409 0.5408 0 1.4681 0.3863 1.9317 0.7727 1.0045 1.8545 1.8544 2.9362 2.4726 1.1591 0.6954 2.4726 1.159 3.8635 1.4681 0.5408 0.0772 1.0817 -0.2318 1.159 -0.7727 0.1545 -0.5409 -0.2318 -1.0818 -0.7727 -1.159" stroke-width="1"></path>
    <path id="Vector_52" fill="#FFC931" d="M62.0972 17.0347c-0.7727 -1.2363 -1.3908 -2.6271 -1.9317 -4.018l-0.6954 -2.0862c-0.2318 -0.7727 -0.3864 -1.5454 -0.7727 -2.24081 -0.3863 -0.54088 -1.0818 -0.30908 -1.3136 0.2318 -0.2318 0.77269 -0.0772 1.69991 0.0773 2.47261s0.4636 1.5454 0.6954 2.318c0.6182 1.5454 1.3908 2.9362 2.3953 4.2498 0.6955 1.0045 2.0863 0.0773 1.5454 -0.9272" stroke-width="1"></path>
    <path id="Vector_53" fill="#FFC931" d="M69.8248 5.44429c-0.1545 -0.61814 -1.0045 -0.54088 -1.2363 -0.07726 -0.85 1.54536 -1.0818 3.47708 -1.5454 5.17697 -0.4636 1.6999 -0.9272 3.4771 -1.4681 5.177 -0.309 1.0045 1.3136 1.5454 1.6999 0.6181 0.7727 -1.6999 1.3136 -3.477 1.8545 -5.3315 0.5409 -1.85442 1.0817 -3.70886 0.6954 -5.56331" stroke-width="1"></path>
    <g id="Group_2">
      <path id="Vector_54" fill="#000000" d="M65.3416 30.2476c-1.2363 0 -1.159 1.9317 0.0773 1.9317s1.159 -1.9317 -0.0773 -1.9317" stroke-width="1"></path>
      <path id="Vector_55" fill="#000000" d="M77.0085 29.7068c-0.0773 -0.1546 -0.1545 -0.2318 -0.2318 -0.3864 -0.0773 -0.0772 -0.1545 -0.1545 -0.3091 -0.1545 -0.0772 -0.0773 -0.2318 -0.0773 -0.3091 -0.0773 -0.1545 0 -0.309 0.0773 -0.3863 0.1546 -0.1545 0.0772 -0.2318 0.1545 -0.3091 0.309 0 0.0773 -0.0772 0.0773 -0.0772 0.1546 0 0.0772 -0.0773 0.1545 -0.0773 0.2318l0 0.309c0 0.0773 0 0.1546 0.0773 0.1546 0 0.0773 0.0772 0.1545 0.1545 0.2318l0.1545 0.1545c0.0773 0 0.1546 0.0773 0.2318 0.0773l0.3091 0c0.0773 0 0.1546 -0.0773 0.3091 -0.0773 0.0773 0 0.0773 -0.0772 0.1545 -0.0772 0.1546 -0.0773 0.2318 -0.1546 0.3091 -0.3091s0.0773 -0.2318 0.0773 -0.3864c0 -0.1545 0 -0.2318 -0.0773 -0.309" stroke-width="1"></path>
      <path id="Vector_56" fill="#000000" d="M69.2062 27.9295c0 0.3863 0.0773 0.7727 0.1546 1.159 0.0772 0.3864 0.1545 0.7727 0.2318 1.1591 0 0.1545 0.0772 0.3863 0.0772 0.5408 0 0.1546 0.0773 0.2318 0.0773 0.3864 0 0.1545 0.0773 0.3091 0.1545 0.4636 0.1546 0.3091 0.5409 0.3863 0.85 0.3863 0.3091 -0.0772 0.6181 -0.309 0.6954 -0.6181l0 -0.4636c0 -0.1546 -0.0773 -0.3091 -0.0773 -0.4636 0 -0.1546 -0.0772 -0.3091 -0.0772 -0.5409 -0.0773 -0.3864 -0.1546 -0.7727 -0.2318 -1.159 -0.0773 -0.3864 -0.1546 -0.7727 -0.3091 -1.0818 -0.0773 -0.1545 -0.0773 -0.3863 -0.1545 -0.5409 -0.0773 -0.2318 -0.1546 -0.4636 -0.2319 -0.6181 -0.309 -0.4636 -1.0044 -0.3091 -1.159 0.2318 -0.0773 0.2318 0 0.4636 0 0.6954z" stroke-width="1"></path>
      <path id="Vector_57" fill="#000000" d="M74.3824 32.1793c-0.5408 0.4636 -1.159 0.9272 -1.7771 1.3135 -0.5409 0.3091 -1.2363 0.5409 -1.8545 0.6954 -0.6954 0.1546 -1.3908 0.1546 -2.009 0 -0.7726 -0.1545 -1.468 -0.3863 -2.1635 -0.6181 -0.6954 -0.2318 -1.0817 0.7727 -0.6181 1.2363 1.2363 1.159 3.3998 1.3136 5.0224 1.0817 1.6999 -0.309 3.6317 -1.159 4.4816 -2.7816 0.2318 -0.6182 -0.4636 -1.3908 -1.0818 -0.9272" stroke-width="1"></path>
    </g>
    <path id="Vector_58" fill="#000000" d="M73.6101 51.1872c-0.1546 -0.3863 -0.4637 -0.6181 -0.9273 -0.6181 -0.9272 0 -1.4681 1.159 -1.9317 1.8544 -0.4636 0.6955 -0.8499 1.3909 -1.3135 2.0863 -0.4637 0.7727 -0.85 1.6226 -1.2363 2.3953 -0.6182 -0.9272 -1.3136 -1.8544 -2.0863 -2.6271 -0.7727 -0.85 -2.2408 0.3863 -1.5454 1.3135 1.0045 1.3909 2.009 2.7817 2.7817 4.3271 0.3863 0.6954 1.6226 0.6181 1.9317 -0.0773 0.6182 -1.4681 1.3908 -2.8589 2.1635 -4.1725 0.3864 -0.6954 0.7727 -1.3136 1.1591 -1.9317 0.4636 -0.7727 1.3135 -1.6999 1.0045 -2.5499" stroke-width="1"></path>
    <path id="Vector_59" fill="#000000" d="M92.6956 50.1055c-0.7727 0 -1.3909 0.8499 -1.8545 1.4681 -0.4636 0.5408 -0.8499 1.159 -1.3135 1.7771 -0.5409 0.7727 -1.0045 1.5454 -1.5454 2.3181 -0.1545 -0.2318 -0.3091 -0.4636 -0.5409 -0.6954 -0.5409 -0.6954 -1.0045 -1.4681 -1.6226 -2.1635 -0.3091 -0.3091 -0.9272 -0.3091 -1.3136 0 -0.3863 0.309 -0.3863 0.8499 -0.2318 1.2363 0.3863 0.7726 0.9272 1.3908 1.3908 2.0862s1.0045 1.3908 1.4681 2.0863c0.4636 0.6954 1.4681 0.6181 1.8545 -0.0773 0.6181 -1.159 1.3908 -2.3953 2.1635 -3.4771 0.3863 -0.5409 0.7727 -1.0818 1.2363 -1.6226 0.4636 -0.5409 1.2363 -1.3136 1.159 -2.1635 -0.0772 -0.4637 -0.3863 -0.7727 -0.8499 -0.7727" stroke-width="1"></path>
    <path id="Vector_60" fill="#FFC931" d="M51.1246 50.5691c-1.2363 0.6182 -2.0863 1.7 -2.9362 2.7044 -0.9272 1.0045 -1.6999 2.009 -2.5499 3.0908 -1.3135 1.7772 -2.5498 3.6316 -3.7089 5.5633 -0.6181 -0.5409 -1.159 -1.159 -1.6226 -1.7772 -0.3091 -0.5408 -0.6954 -1.0045 -0.9272 -1.5453 -0.3091 -0.6182 -0.4636 -1.3136 -0.9272 -1.7772s-1.3909 -0.1545 -1.4681 0.4636c-0.1546 0.6954 0.1545 1.4681 0.4636 2.0863 0.309 0.6954 0.6181 1.3135 1.0045 1.9317 0.8499 1.2363 1.8544 2.318 3.0134 3.168 0.6182 0.4636 1.3909 0.3863 1.7772 -0.3091 1.3136 -2.2408 2.7044 -4.4043 4.2498 -6.4133 0.7727 -1.0045 1.6226 -2.0862 2.3953 -3.0907 0.8499 -1.0045 1.7772 -1.9317 2.2408 -3.0908 0.3863 -0.7727 -0.3091 -1.3135 -1.0045 -1.0045" stroke-width="1"></path>
    <path id="Vector_61" fill="#FFC931" d="M47.8806 79.6992c-1.0817 0.4637 -1.8544 1.5454 -2.5498 2.4726 -0.7727 0.9273 -1.3909 2.009 -2.009 3.0135 -0.85 1.3908 -1.6227 2.7817 -2.2408 4.2498 -0.3863 -0.6954 -0.6954 -1.3136 -1.0818 -2.009 -0.6954 -1.3136 -1.2363 -2.7817 -1.9317 -4.0952 -0.5409 -1.0045 -1.9317 -0.1546 -1.6999 0.7727 0.3864 1.4681 1.0818 2.9362 1.6999 4.327 0.6954 1.3908 1.3909 2.7817 2.1635 4.1725 0.3864 0.6954 1.6227 0.6954 1.9318 -0.0773 0.8499 -2.0862 1.8544 -4.1725 3.0134 -6.1815 0.5409 -0.9272 1.1591 -1.8544 1.7772 -2.7044 0.6954 -0.9272 1.6226 -1.9317 1.9317 -3.0134 0.1545 -0.5409 -0.4636 -1.1591 -1.0045 -0.9273" stroke-width="1"></path>
    <path id="Vector_62" fill="#000000" d="M169.732 154.495c-2.318 -1.391 -5.564 -1.7 -7.959 -0.309 -0.927 0.541 -0.232 2.086 0.85 1.777 1.855 -0.618 3.786 -0.618 5.486 0.232 1.777 0.927 3.014 2.55 3.555 4.482 1.236 4.095 -1.082 8.267 -4.482 10.508 -1.005 0.696 -2.164 1.236 -3.323 1.623 -0.618 0.232 -1.236 0.386 -1.854 0.541 -0.695 0.154 -1.391 0.231 -1.932 0.618 -0.463 0.386 -0.618 1.313 0.078 1.545 1.236 0.464 2.858 -0.077 4.095 -0.541 1.236 -0.386 2.472 -1.004 3.631 -1.7 2.164 -1.39 4.018 -3.322 5.1 -5.64 2.164 -4.482 1.314 -10.354 -3.245 -13.136" stroke-width="1"></path>
    <path id="Vector_63" fill="#000000" d="M144.851 132.164c-0.154 -0.386 -0.541 -0.618 -0.927 -0.618 -0.464 0 -1.005 0.078 -1.468 0.309 0 -0.54 -0.077 -1.081 -0.155 -1.545 -0.077 -0.386 -0.463 -0.618 -0.85 -0.618 -0.386 0 -0.695 0.154 -0.927 0.541 -0.773 1.159 -1.004 2.627 -0.85 4.018 0 0.232 0.155 0.463 0.386 0.618 0.078 0.232 0.232 0.463 0.464 0.541 0.464 0.232 1.082 0.077 1.314 -0.387 0 0 0 -0.077 0.077 -0.077 0.386 -0.154 0.85 -0.463 1.236 -0.695 0.464 -0.232 0.927 -0.541 1.391 -0.773 0.232 -0.386 0.464 -0.927 0.309 -1.314" stroke-width="1"></path>
  </g>
</svg>